<svg xmlns="http://www.w3.org/2000/svg" fill="none" viewBox="0 0 25 25"><path fill="currentColor" d="M16.885.216h-9.72C3.214.216 0 3.43 0 7.38v9.72c0 3.951 3.214 7.164 7.165 7.164h9.72a7.17 7.17 0 007.163-7.163V7.38c0-3.951-3.213-7.165-7.163-7.165zM21.63 17.1a4.745 4.745 0 01-4.745 4.745h-9.72A4.746 4.746 0 012.419 17.1V7.38a4.745 4.745 0 014.746-4.746h9.72A4.745 4.745 0 0121.63 7.38v9.72z"/><path fill="currentColor" d="M12.025 6.02c-3.43 0-6.22 2.79-6.22 6.22 0 3.43 2.79 6.22 6.22 6.22a6.224 6.224 0 006.219-6.22c0-3.429-2.79-6.22-6.219-6.22zm0 10.021a3.8 3.8 0 11-.001-7.6 3.8 3.8 0 01.001 7.6zm6.232-8.484a1.49 1.49 0 100-2.98 1.49 1.49 0 000 2.98z"/></svg>