<svg xmlns="http://www.w3.org/2000/svg" fill="none" viewBox="0 0 411 263">
  <style>
    @media (prefers-color-scheme: dark) {
      .a { fill: #fff; }
    }
  </style>
  <path fill="#FAB71B" fill-rule="evenodd" d="M51.9884 117.87c-1.746 2.732-5.4318 2.147-8.5356-1.171-3.1039-3.317-4.0738-8.196-2.3279-10.928 1.7459-2.732 5.4317-2.147 8.5356 1.171 3.1038 3.317 4.0738 8.196 2.3279 10.928ZM161.788 184.416c-45.782 2.341-78.7599 3.122-106.3066-7.416 5.8198 14.246 36.2763 23.613 55.0936 24.589 17.653.975 49.273-3.513 69.642-5.269 36.277-3.123 76.821-.781 102.427 10.928-5.431-4.293-11.445-8.587-18.041-12.685-30.068-13.075-58.003-12.294-102.815-10.147Z" clip-rule="evenodd"/>
  <path fill="url(#a)" fill-rule="evenodd" d="M174.593 165.096h-.582c-.582 0-.97-.195-1.552-.195.776 0 1.552 0 2.134.195Zm-1.94-.39c-1.552-.195-3.104-.391-4.656-.781 1.358.39 2.91.586 4.656.781-.194 0-.194 0 0 0ZM.971104 109.479c1.357936 3.903 3.685816 8.001 6.983656 12.294.77596-1.561 1.93991-3.122 3.49184-4.098 9.6995-6.05 14.3553 3.513 23.2789 11.319 7.9536 6.83 20.369 14.245 39.768 20.1 28.1285 8.391 53.3475 9.172 93.6975 15.026-26.577-4.098-50.244-12.099-70.6126-21.271-5.6257-1.951-19.981-8.586-27.7407-13.465-8.5355-5.464-13.7733-3.708-11.2514.976 2.3279 4.683 10.4755 8.976 17.6531 11.513 2.5219.976 11.2515 3.903 16.2952 4.879 0 0-16.2952-.976-34.7243-11.123-23.8608-12.88-27.7406-23.028-36.8582-34.542-3.4918-4.293-7.5656-6.2445-11.25142-6.2445-6.78967-.1952-11.83342 5.8545-8.729576 14.6365Z" clip-rule="evenodd"/>
  <path fill="url(#b)" fill-rule="evenodd" d="M11.2515 117.675c-5.62576 3.512-5.62576 11.709-2.32792 19.515 4.26782 9.757 15.51922 22.247 26.38272 29.662 31.6204 21.076 69.0607 20.686 126.2877 17.759 44.812-2.342 72.747-2.927 103.009 10.343-20.757-12.88-48.11-24.004-89.818-29.858-.775 0-1.551-.195-2.327-.39-43.066-6.44-69.061-6.831-98.1596-15.612-19.3991-5.855-31.8145-13.27-39.7681-20.101-6.7896-5.854-11.2514-13.075-17.4591-13.075-1.7459-.195-3.6858.391-5.8197 1.757Z" clip-rule="evenodd"/>
  <path class="a" fill="#DC0833" fill-rule="evenodd" d="m211.642 144.8 30.845-64.2035 47.915 100.3065c-25.218-23.028-50.049-34.541-78.76-36.103Zm198.841 109.479L292.536 8.0011C290.79 4.09813 286.523 0 281.285 0h-63.241c-4.85 0-9.118 2.92723-11.058 7.02536L139.672 147.533c-15.325-.196-30.069-1.367-42.2902-4.684 21.7272 9.953 47.5282 18.344 76.6262 22.247 137.345 18.344 121.244 96.989 214.36 96.989h17.071c2.91 0 5.432-2.732 5.432-5.659 0-.781 0-1.562-.388-2.147ZM119.498 201.783c-2.134 0-4.074.195-6.014.195l-25.0247 52.3c-.388.585-.388 1.366-.388 2.147 0 3.122 2.5219 5.464 5.4317 5.464h26.577c19.399 0 36.276-8.001 44.23-19.515.97-1.366 1.745-2.927 2.521-4.488l19.981-41.957c-2.327.195-4.461.39-6.789.585-17.071 1.366-42.484 4.879-60.525 5.269Z" clip-rule="evenodd"/>
  <defs>
    <linearGradient id="a" x1="-391.671" x2="580.403" y1="167.621" y2="92.5809" gradientUnits="userSpaceOnUse">
      <stop stop-color="#FDC90E"/>
      <stop offset=".41" stop-color="#FAB71B"/>
      <stop offset=".78" stop-color="#EE7925"/>
      <stop offset="1" stop-color="#E42529"/>
    </linearGradient>
    <linearGradient id="b" x1="15.6997" x2="262.314" y1="171.204" y2="140.178" gradientUnits="userSpaceOnUse">
      <stop stop-color="#F6A420"/>
      <stop offset=".14" stop-color="#EE7925"/>
      <stop offset="1" stop-color="#E42529"/>
    </linearGradient>
  </defs>
</svg>
