<svg xmlns="http://www.w3.org/2000/svg" fill-rule="evenodd" clip-rule="evenodd" image-rendering="optimizeQuality" shape-rendering="geometricPrecision" text-rendering="geometricPrecision" viewBox="0 0 414.52 159.46">
  <path fill="currentColor" d="M242.87 57.95c-5.95 2.34-5.95 1.4-9.91 5.61-19.83 22.45-3.96 71.09 31.08 56.12 31.07-12.64 19.16-77.64-21.17-61.73zm5.96 11.69c-13.23 6.08-9.25 48.64 9.26 38.81 10.58-6.08 9.25-47.7-9.26-38.81zm127.6-12.19c-31.74 9.83-22.47 78.11 19.85 62.67 8.59-2.81 11.9-6.55 15.2-14.97 9.25-24.32-2.66-57.53-35.05-47.7zm5.29 12.16c-7.93 4.21-7.93 16.37-6.61 25.26.67 8.88 5.96 19.17 15.87 13.56 10.58-6.09 9.25-48.18-9.26-38.82zm-219.5 35.12h26.45v11.22c0 .47-1.32 0 1.98 4.21l14.55.46v-15.9l10.58-.47 1.31-13.56h-11.9l-.66-22.91c-17.85-.47-14.55 7.95-15.87 22.91l-15.86.48c3.3-7.49 22.47-44.91 21.8-50.99-3.96-2.8-7.93-3.27-13.88-2.33-4.63 6.55-11.23 24.32-14.54 33.21-3.96 7.95-15.2 26.66-3.96 33.67z"/>
  <path fill="currentColor" d="M325.51 40.16c-2.64 16.83-1.31 15.9-5.28 17.3h-6.61v11.23l9.92.46c0 27.13-7.92 62.67 30.42 50.04v-10.76c-17.19-.93-13.88 5.15-13.89-39.28 13.22 0 17.19 3.74 15.2-10.76-4.63-1.4-9.92-.93-15.21-.46-.66-14.97 4.63-25.26-14.55-17.77zM17.43 101.95c17.85-5.14-6.62-14.02-3.32-52.84 1.98-22.92 8.59-28.07 15.86-42.56-2.65-3.28-2.65-4.21-6.61-6.55C-1.1 18.71-7.05 60.34 8.83 91.2c2.64 4.68 4.63 8.42 8.6 10.75z"/>
  <path fill="#F16236" d="M102.05 63.12c1.98 6.55 6.61 12.16 8.6 21.04 3.97 15.9 3.31 35.08-3.3 50.51-3.3 7.95-7.93 12.63-10.57 18.71 2.64 3.74 2.64 4.21 5.95 6.08 15.2-5.61 31.72-44.9 19.82-79.51-1.99-7.48-7.28-19.17-13.89-21.98l-6.61 5.15z"/>
  <path fill="currentColor" d="m285.19 58.41-.66 10.28c8.59 2.81 7.93-2.34 7.94 22.45 0 24.32-3.96 33.21 13.23 29.93 4.62-1.4 3.3-3.27 3.3-8.89 0-8.88 1.97-45.36-2.65-50.97-3.31-4.68-14.55-5.61-21.16-2.8z"/>
  <path fill="#F16236" d="M77.6 142.63c5.95 5.61 9.26.47 14.54-9.82 10.58-20.12 7.93-49.11-2.65-60.8-4.63-4.21-11.91-5.14-5.29 9.35 3.31 6.55 4.63 14.03 4.63 21.51.01 26.2-11.89 30.87-11.23 39.76z"/>
  <path fill="currentColor" d="M41.23 90.73c3.96-1.88 1.98-.47 4.62-3.75-4.63-14.49-13.89-27.59-3.31-54.25 1.98-5.14 6.61-10.76 7.27-14.5-1.33-1.87-1.33-1.87-3.31-3.74-9.26 3.28-17.85 21.99-18.51 35.55-1.32 14.97 3.98 35.54 13.24 40.69z"/>
  <path fill="#F16236" d="M60.41 129.07c1.32.94 1.32 1.4 3.3 2.34 11.9-8.42 17.19-39.76 2.64-50.51-5.29 1.87-3.31 3.27-.66 8.42 7.94 18.7-1.98 31.33-5.28 39.75z"/>
  <path fill="currentColor" d="M62.38 78.56c3.3-5.61-10.58-20.57-.01-40.22C72.95 18.7 52.45 31.8 51.8 53.78c0 5.61.66 10.28 1.98 14.96 3.31 9.82 4.63 9.82 8.6 9.82zm227.43-45.41c-4.62 15.9 5.29 17.77 16.53 13.09 1.99-4.21 1.98-7.48 0-13.09-5.95-2.34-9.92-2.34-16.53 0z"/>
</svg>
