<svg xmlns="http://www.w3.org/2000/svg" fill="currentColor" viewBox="0 0 78.6 39.7">
  <path d="M60.9 32.3h4.7v-7.8c0-1.6.8-3.1 2.5-3.1 2.6 0 2.4 2 2.4 4v6.9h4.7v-9.2c0-2.1-.4-5.6-5.2-5.6-1.7 0-3.7.9-4.5 2.4h-.1v-2h-4.6v14.4zm-10.6 0H55v-7.1c0-1.8 1.2-3.4 3.5-3.4.6 0 1.2.1 1.8.3v-4.3c-.4-.1-.7-.1-1.1-.1-2 0-3.6 1-4.3 2.8h-.1V18h-4.5v14.3zm-.6-14.4H45v7.7c0 2.5-1.6 3.2-2.6 3.2-1.5 0-2.3-.7-2.3-2.6v-8.3h-4.7v8.6c0 3.8 1.2 6.1 5.3 6.1 1.7 0 3.5-.9 4.4-2.4h.1v2h4.6V17.9h-.1zm-22.4 3.2c2.1 0 2.8 2 2.8 3.8 0 2-.7 4.1-2.8 4.1-2.1 0-2.8-1.6-2.8-4.1-.1-2.9 1.5-3.8 2.8-3.8zM6.4 0c2.5.4 5 3.5 6.1 5.7 1.3 2.5.8 5.1 3 7.7-4.1-.9-5-3.6-5.8-7.2C9.4 4.2 8 1.3 6.4 0zM1.9 8.8c1.7.4 4.9 2 5.4 3.9.7 2.7.5 3.5 2.8 5.8-1-.3-3.1-1-4.2-.5-.4-.5-.7-1.6-.9-3.2-.4-2.8-.3-3.7-3.1-6zM.1 16.4c-.3 2.6-.3 5.3 2.4 6.2 2.3.8 4 1.2 6 2.9-.8-2.2-1.6-3.8-3.9-4.7-2.6-1-3.3-2-4.5-4.4zm19.8 15.9h4.5v-1.7h.1c.9 1.4 2.3 2.1 4 2.1 4.5 0 6.4-3.9 6.4-7.9 0-3.7-2-7.3-6.1-7.3-1.8 0-3.1.7-4.1 2h-.1c0-7.5-4.4-5.9-6.5-10.4-2 3.3 3 6.2 1.6 11.6-1.7-3-4.4-4.5-6.8-6.2-2.8-2-3.4-5.1-4.3-6.8-.3 2.7-.1 5 .6 7 1.1 3.1 4.5 4.2 5.8 7.2.5 1.8.9 3.3 1.1 4.6-2.3-3.8-4.6-6.1-6.9-6.9-1.6-.5-3.4-.7-5.4-.6 2.9 1 4.9 3.2 6 6.6 1 4 6.2 6.6 10.1 6.7zM53.5 37.4v-.3c.1-.5.6-.9 1.1-.9.8 0 1.2.7 1.2 1.5 0 .9-.4 1.5-1.2 1.5-.5 0-.9-.3-1.1-.8v-1zm-.7 1.2v1h.6V39c.3.5.7.7 1.3.7.9 0 1.7-.7 1.7-2.1 0-1.2-.7-2-1.6-2-.6 0-1.1.3-1.3.7v-2.4h-.7v4.7zm-3.1-1.3c.1-.5.4-1.1 1.1-1.1.8 0 1 .7 1 1.1h-2.1zm2.7.5v-.3c0-.7-.3-1.8-1.6-1.8-1.1 0-1.8.9-1.8 2.1 0 1.2.7 2 1.9 2 .6 0 1.1-.1 1.3-.2l-.1-.5c-.3.1-.6.2-1.1.2-.7 0-1.3-.4-1.3-1.3l2.7-.2zm-8.9-2 1.2 3.9h.6l.6-1.8c.1-.4.3-.8.4-1.3.1.5.2.8.3 1.3l.6 1.9h.6l1.3-3.9h-.6l-.6 1.9c-.1.5-.2.9-.3 1.3-.1-.4-.2-.8-.3-1.3l-.6-1.9h-.6l-.6 2c-.1.4-.3.8-.3 1.2l-.3-1.2-.5-2-.9-.1zM73.3 39.2c-.7 0-1.2-.6-1.2-1.5 0-.7.4-1.5 1.2-1.5.8 0 1.2.8 1.2 1.5 0 .9-.5 1.5-1.2 1.5zm0 .5c.9 0 1.9-.6 1.9-2.1 0-1.2-.8-2-1.9-2-1.1 0-1.9.8-1.9 2.1 0 1.2.8 2 1.9 2zm-2.6-4.6c.3 0 .5-.2.5-.5 0-.2-.2-.4-.4-.4s-.5.2-.5.4.2.5.4.5zm.4 4.5v-3.9h-.7v3.9h.7zM69 38v.3c-.1.5-.6.8-1 .8-.8 0-1.1-.6-1.1-1.4 0-.9.4-1.5 1.2-1.5.5 0 .9.4 1 .8v1zm0-4v2.3c-.2-.3-.6-.6-1.2-.6-.9 0-1.7.8-1.7 2.1 0 1.2.7 2 1.7 2 .6 0 1.1-.3 1.3-.8v.7h.6V34H69zm-3.3 1.8H65v2.4c0 .1 0 .3-.1.4-.1.3-.5.6-.9.6-.6 0-.9-.5-.9-1.2v-2.1h-.7v2.3c0 1.4.7 1.7 1.3 1.7.7 0 1.1-.4 1.3-.7v.6h.6v-1.1l.1-2.9zm-5.2-.7v.7h-.6v.5h.6v2.1c0 .5.1.8.3 1 .2.2.4.3.8.3.3 0 .5 0 .6-.1v-.5c-.1 0-.2.1-.4.1-.4 0-.5-.3-.5-.8v-2.1h1v-.5h-1v-.9l-.8.2zm-3.1 4.4c.3.2.7.3 1.1.3.9 0 1.4-.5 1.4-1.2 0-.6-.4-.9-1-1.2-.5-.2-.7-.3-.7-.7 0-.3.2-.5.6-.5.4 0 .6.1.8.2l.2-.5c-.2-.1-.6-.2-.9-.2-.8 0-1.3.5-1.3 1.1 0 .5.3.8 1 1.1.5.2.7.4.7.7 0 .3-.2.6-.7.6-.4 0-.7-.1-.9-.3l-.3.6zm-.5.2c.3 0 .5-.2.5-.5s-.2-.5-.5-.5-.5.2-.5.5.2.5.5.5zM76.4 14.6c1 0 1.6.8 1.6 1.7 0 .9-.7 1.7-1.6 1.7-1 0-1.7-.8-1.7-1.7.1-1 .8-1.7 1.7-1.7m0-.5c-1.2 0-2.2 1-2.2 2.1 0 1.2 1 2.2 2.2 2.2 1.2 0 2.2-1 2.2-2.2 0-1.1-.9-2.1-2.2-2.1zm-.3 1.5h.3c.3 0 .5.1.5.3 0 .2-.2.3-.5.3h-.2v-.6zm0 .9h.2c.3 0 .4.1.4.3.1.2.1.4.2.5h.5c-.1-.1-.1-.2-.2-.5s-.2-.4-.4-.5c.3-.1.4-.3.4-.5s-.1-.4-.2-.5c-.2-.1-.3-.2-.7-.2-.4 0-.6 0-.8.1v2.1h.5l.1-.8z" class="a-burn"/>
</svg>
